<mxfile host="Electron" agent="Mozilla/5.0 (Windows NT 10.0; Win64; x64) AppleWebKit/537.36 (KHTML, like Gecko) draw.io/27.0.2 Chrome/134.0.6998.205 Electron/35.3.0 Safari/537.36" version="27.0.2">
  <diagram name="第 1 页" id="4geFPPMPHMrQqKgHkXr9">
    <mxGraphModel dx="1287" dy="856" grid="1" gridSize="10" guides="1" tooltips="1" connect="1" arrows="1" fold="1" page="1" pageScale="1" pageWidth="1169" pageHeight="827" math="0" shadow="0">
      <root>
        <mxCell id="0" />
        <mxCell id="1" parent="0" />
        <mxCell id="JlBkf-uAjevgLr71BC_p-1" value="&lt;h1&gt;會員&lt;/h1&gt;" style="rounded=0;whiteSpace=wrap;html=1;fillColor=#dae8fc;strokeColor=#6c8ebf;" parent="1" vertex="1">
          <mxGeometry x="250" y="205" width="120" height="60" as="geometry" />
        </mxCell>
        <mxCell id="JlBkf-uAjevgLr71BC_p-2" value="&lt;h1&gt;進站&lt;/h1&gt;" style="rhombus;whiteSpace=wrap;html=1;fillColor=#fff2cc;strokeColor=#d6b656;" parent="1" vertex="1">
          <mxGeometry x="470" y="200" width="130" height="70" as="geometry" />
        </mxCell>
        <mxCell id="JlBkf-uAjevgLr71BC_p-5" value="&lt;h1&gt;遊戲&lt;/h1&gt;" style="rounded=0;whiteSpace=wrap;html=1;fillColor=#dae8fc;strokeColor=#6c8ebf;" parent="1" vertex="1">
          <mxGeometry x="710" y="205" width="120" height="60" as="geometry" />
        </mxCell>
        <mxCell id="JlBkf-uAjevgLr71BC_p-6" value="" style="endArrow=none;html=1;rounded=0;entryX=1;entryY=0.5;entryDx=0;entryDy=0;exitX=0;exitY=0.5;exitDx=0;exitDy=0;" parent="1" source="JlBkf-uAjevgLr71BC_p-5" target="JlBkf-uAjevgLr71BC_p-2" edge="1">
          <mxGeometry relative="1" as="geometry">
            <mxPoint x="480" y="430" as="sourcePoint" />
            <mxPoint x="640" y="430" as="targetPoint" />
          </mxGeometry>
        </mxCell>
        <mxCell id="JlBkf-uAjevgLr71BC_p-7" value="&lt;h1&gt;N&lt;/h1&gt;" style="resizable=0;html=1;whiteSpace=wrap;align=right;verticalAlign=bottom;" parent="JlBkf-uAjevgLr71BC_p-6" connectable="0" vertex="1">
          <mxGeometry x="1" relative="1" as="geometry">
            <mxPoint x="20" y="15" as="offset" />
          </mxGeometry>
        </mxCell>
        <mxCell id="JlBkf-uAjevgLr71BC_p-8" value="" style="endArrow=none;html=1;rounded=0;exitX=1;exitY=0.5;exitDx=0;exitDy=0;entryX=0;entryY=0.5;entryDx=0;entryDy=0;" parent="1" source="JlBkf-uAjevgLr71BC_p-1" target="JlBkf-uAjevgLr71BC_p-2" edge="1">
          <mxGeometry relative="1" as="geometry">
            <mxPoint x="480" y="430" as="sourcePoint" />
            <mxPoint x="640" y="430" as="targetPoint" />
          </mxGeometry>
        </mxCell>
        <mxCell id="JlBkf-uAjevgLr71BC_p-9" value="&lt;h1&gt;M&lt;/h1&gt;" style="resizable=0;html=1;whiteSpace=wrap;align=right;verticalAlign=bottom;" parent="JlBkf-uAjevgLr71BC_p-8" connectable="0" vertex="1">
          <mxGeometry x="1" relative="1" as="geometry">
            <mxPoint x="-10" y="15" as="offset" />
          </mxGeometry>
        </mxCell>
        <mxCell id="df6ByHdNmYR0N2EyLzQO-1" value="&lt;h2&gt;&lt;u&gt;編號&lt;/u&gt;&lt;/h2&gt;" style="ellipse;whiteSpace=wrap;html=1;" parent="1" vertex="1">
          <mxGeometry x="370" y="80" width="120" height="50" as="geometry" />
        </mxCell>
        <mxCell id="df6ByHdNmYR0N2EyLzQO-2" value="" style="endArrow=none;html=1;rounded=0;entryX=0.5;entryY=1;entryDx=0;entryDy=0;exitX=0.75;exitY=0;exitDx=0;exitDy=0;" parent="1" source="JlBkf-uAjevgLr71BC_p-1" target="df6ByHdNmYR0N2EyLzQO-1" edge="1">
          <mxGeometry relative="1" as="geometry">
            <mxPoint x="330" y="200" as="sourcePoint" />
            <mxPoint x="790" y="430" as="targetPoint" />
          </mxGeometry>
        </mxCell>
        <mxCell id="df6ByHdNmYR0N2EyLzQO-3" value="&lt;h2&gt;&lt;span style=&quot;font-weight: normal;&quot;&gt;姓名&lt;/span&gt;&lt;/h2&gt;" style="ellipse;whiteSpace=wrap;html=1;align=center;" parent="1" vertex="1">
          <mxGeometry x="180" y="80" width="110" height="50" as="geometry" />
        </mxCell>
        <mxCell id="df6ByHdNmYR0N2EyLzQO-4" value="&lt;h2&gt;&lt;span style=&quot;font-weight: normal;&quot;&gt;住址&lt;/span&gt;&lt;/h2&gt;" style="ellipse;whiteSpace=wrap;html=1;align=center;" parent="1" vertex="1">
          <mxGeometry x="50" y="150" width="120" height="40" as="geometry" />
        </mxCell>
        <mxCell id="df6ByHdNmYR0N2EyLzQO-5" value="&lt;h2&gt;&lt;span style=&quot;font-weight: normal;&quot;&gt;性別&lt;/span&gt;&lt;/h2&gt;" style="ellipse;whiteSpace=wrap;html=1;align=center;" parent="1" vertex="1">
          <mxGeometry x="50" y="240" width="120" height="50" as="geometry" />
        </mxCell>
        <mxCell id="df6ByHdNmYR0N2EyLzQO-6" value="&lt;h2&gt;&lt;span style=&quot;font-weight: normal;&quot;&gt;出生年月日&lt;/span&gt;&lt;/h2&gt;" style="ellipse;whiteSpace=wrap;html=1;align=center;" parent="1" vertex="1">
          <mxGeometry x="120" y="330" width="120" height="50" as="geometry" />
        </mxCell>
        <mxCell id="df6ByHdNmYR0N2EyLzQO-7" value="&lt;h2&gt;&lt;span style=&quot;font-weight: normal;&quot;&gt;密碼&lt;/span&gt;&lt;/h2&gt;" style="ellipse;whiteSpace=wrap;html=1;align=center;" parent="1" vertex="1">
          <mxGeometry x="280" y="340" width="120" height="50" as="geometry" />
        </mxCell>
        <mxCell id="df6ByHdNmYR0N2EyLzQO-8" value="" style="endArrow=none;html=1;rounded=0;entryX=0.5;entryY=0;entryDx=0;entryDy=0;exitX=0.5;exitY=1;exitDx=0;exitDy=0;" parent="1" source="JlBkf-uAjevgLr71BC_p-1" target="df6ByHdNmYR0N2EyLzQO-7" edge="1">
          <mxGeometry relative="1" as="geometry">
            <mxPoint x="330" y="270" as="sourcePoint" />
            <mxPoint x="640" y="420" as="targetPoint" />
          </mxGeometry>
        </mxCell>
        <mxCell id="df6ByHdNmYR0N2EyLzQO-9" value="" style="endArrow=none;html=1;rounded=0;exitX=0.5;exitY=1;exitDx=0;exitDy=0;entryX=0.5;entryY=0;entryDx=0;entryDy=0;" parent="1" source="df6ByHdNmYR0N2EyLzQO-3" target="JlBkf-uAjevgLr71BC_p-1" edge="1">
          <mxGeometry relative="1" as="geometry">
            <mxPoint x="480" y="420" as="sourcePoint" />
            <mxPoint x="640" y="420" as="targetPoint" />
          </mxGeometry>
        </mxCell>
        <mxCell id="df6ByHdNmYR0N2EyLzQO-10" value="" style="endArrow=none;html=1;rounded=0;exitX=1;exitY=1;exitDx=0;exitDy=0;entryX=0;entryY=0.25;entryDx=0;entryDy=0;" parent="1" source="df6ByHdNmYR0N2EyLzQO-4" target="JlBkf-uAjevgLr71BC_p-1" edge="1">
          <mxGeometry relative="1" as="geometry">
            <mxPoint x="480" y="420" as="sourcePoint" />
            <mxPoint x="640" y="420" as="targetPoint" />
          </mxGeometry>
        </mxCell>
        <mxCell id="df6ByHdNmYR0N2EyLzQO-11" value="" style="endArrow=none;html=1;rounded=0;exitX=0.908;exitY=0.25;exitDx=0;exitDy=0;exitPerimeter=0;entryX=0;entryY=0.65;entryDx=0;entryDy=0;entryPerimeter=0;" parent="1" source="df6ByHdNmYR0N2EyLzQO-5" target="JlBkf-uAjevgLr71BC_p-1" edge="1">
          <mxGeometry relative="1" as="geometry">
            <mxPoint x="480" y="420" as="sourcePoint" />
            <mxPoint x="640" y="420" as="targetPoint" />
          </mxGeometry>
        </mxCell>
        <mxCell id="df6ByHdNmYR0N2EyLzQO-12" value="" style="endArrow=none;html=1;rounded=0;exitX=0.5;exitY=0;exitDx=0;exitDy=0;entryX=0.063;entryY=0.992;entryDx=0;entryDy=0;entryPerimeter=0;" parent="1" source="df6ByHdNmYR0N2EyLzQO-6" target="JlBkf-uAjevgLr71BC_p-1" edge="1">
          <mxGeometry relative="1" as="geometry">
            <mxPoint x="480" y="420" as="sourcePoint" />
            <mxPoint x="640" y="420" as="targetPoint" />
          </mxGeometry>
        </mxCell>
        <mxCell id="df6ByHdNmYR0N2EyLzQO-13" value="&lt;h2&gt;&lt;u&gt;代號&lt;/u&gt;&lt;/h2&gt;" style="ellipse;whiteSpace=wrap;html=1;" parent="1" vertex="1">
          <mxGeometry x="740" y="80" width="120" height="50" as="geometry" />
        </mxCell>
        <mxCell id="df6ByHdNmYR0N2EyLzQO-14" value="&lt;h2&gt;&lt;span style=&quot;font-weight: normal;&quot;&gt;名稱&lt;/span&gt;&lt;/h2&gt;" style="ellipse;whiteSpace=wrap;html=1;align=center;" parent="1" vertex="1">
          <mxGeometry x="920" y="155" width="110" height="50" as="geometry" />
        </mxCell>
        <mxCell id="df6ByHdNmYR0N2EyLzQO-15" value="&lt;h2&gt;&lt;span style=&quot;font-weight: normal;&quot;&gt;遊戲難度&lt;/span&gt;&lt;/h2&gt;" style="ellipse;whiteSpace=wrap;html=1;align=center;" parent="1" vertex="1">
          <mxGeometry x="890" y="270" width="110" height="50" as="geometry" />
        </mxCell>
        <mxCell id="df6ByHdNmYR0N2EyLzQO-16" value="" style="endArrow=none;html=1;rounded=0;entryX=0.442;entryY=0.96;entryDx=0;entryDy=0;entryPerimeter=0;exitX=0.5;exitY=0;exitDx=0;exitDy=0;" parent="1" source="JlBkf-uAjevgLr71BC_p-5" target="df6ByHdNmYR0N2EyLzQO-13" edge="1">
          <mxGeometry relative="1" as="geometry">
            <mxPoint x="480" y="420" as="sourcePoint" />
            <mxPoint x="640" y="420" as="targetPoint" />
          </mxGeometry>
        </mxCell>
        <mxCell id="df6ByHdNmYR0N2EyLzQO-17" value="" style="endArrow=none;html=1;rounded=0;exitX=1;exitY=0.5;exitDx=0;exitDy=0;entryX=0.086;entryY=0.81;entryDx=0;entryDy=0;entryPerimeter=0;" parent="1" source="JlBkf-uAjevgLr71BC_p-5" target="df6ByHdNmYR0N2EyLzQO-14" edge="1">
          <mxGeometry relative="1" as="geometry">
            <mxPoint x="850" y="230" as="sourcePoint" />
            <mxPoint x="1010" y="230" as="targetPoint" />
          </mxGeometry>
        </mxCell>
        <mxCell id="df6ByHdNmYR0N2EyLzQO-18" value="" style="endArrow=none;html=1;rounded=0;exitX=1;exitY=0.75;exitDx=0;exitDy=0;" parent="1" source="JlBkf-uAjevgLr71BC_p-5" target="df6ByHdNmYR0N2EyLzQO-15" edge="1">
          <mxGeometry relative="1" as="geometry">
            <mxPoint x="790" y="270" as="sourcePoint" />
            <mxPoint x="950" y="270" as="targetPoint" />
          </mxGeometry>
        </mxCell>
        <mxCell id="df6ByHdNmYR0N2EyLzQO-19" value="&lt;h2&gt;&lt;span style=&quot;font-weight: normal;&quot;&gt;進站時間&lt;/span&gt;&lt;/h2&gt;" style="ellipse;whiteSpace=wrap;html=1;align=center;" parent="1" vertex="1">
          <mxGeometry x="440" y="330" width="120" height="50" as="geometry" />
        </mxCell>
        <mxCell id="df6ByHdNmYR0N2EyLzQO-20" value="&lt;h2&gt;&lt;span style=&quot;font-weight: normal;&quot;&gt;遊戲得分&lt;/span&gt;&lt;/h2&gt;" style="ellipse;shape=doubleEllipse;margin=3;whiteSpace=wrap;html=1;align=center;" parent="1" vertex="1">
          <mxGeometry x="600" y="330" width="120" height="50" as="geometry" />
        </mxCell>
        <mxCell id="df6ByHdNmYR0N2EyLzQO-21" value="" style="endArrow=none;html=1;rounded=0;exitX=0.386;exitY=0.879;exitDx=0;exitDy=0;exitPerimeter=0;entryX=0.5;entryY=0;entryDx=0;entryDy=0;" parent="1" source="JlBkf-uAjevgLr71BC_p-2" target="df6ByHdNmYR0N2EyLzQO-19" edge="1">
          <mxGeometry relative="1" as="geometry">
            <mxPoint x="480" y="420" as="sourcePoint" />
            <mxPoint x="640" y="420" as="targetPoint" />
          </mxGeometry>
        </mxCell>
        <mxCell id="df6ByHdNmYR0N2EyLzQO-22" value="" style="endArrow=none;html=1;rounded=0;exitX=0.65;exitY=0.864;exitDx=0;exitDy=0;exitPerimeter=0;entryX=0.267;entryY=0.04;entryDx=0;entryDy=0;entryPerimeter=0;" parent="1" source="JlBkf-uAjevgLr71BC_p-2" target="df6ByHdNmYR0N2EyLzQO-20" edge="1">
          <mxGeometry relative="1" as="geometry">
            <mxPoint x="570" y="280" as="sourcePoint" />
            <mxPoint x="618" y="360" as="targetPoint" />
          </mxGeometry>
        </mxCell>
      </root>
    </mxGraphModel>
  </diagram>
</mxfile>
